<?xml version="1.0" encoding="utf-8"?>
<!-- Generator: Adobe Illustrator 24.3.0, SVG Export Plug-In . SVG Version: 6.00 Build 0)  -->
<svg version="1.1" id="Layer_1" xmlns="http://www.w3.org/2000/svg" xmlns:xlink="http://www.w3.org/1999/xlink" x="0px" y="0px"
	 viewBox="0 0 313 93" style="enable-background:new 0 0 313 93;" xml:space="preserve">
<style type="text/css">
	.st0{fill:#21BEC6;}
</style>
<g>
	<path class="st0" d="M56.1,43.1l2.7-5.7h-4.2c1.9-3.9,3.8-8.5,5.9-12.7c1.4-2.7,3.1-5.3,5.2-6.1c6,2.4,12.2,5.1,17.2,5.1
		c7.2,0,11.7-3.1,11.7-8.4c0-3.5-3.4-5.7-6.2-5.7c-1.3,0-2.7,0.4-4,1.4l-0.1,0.2c0.2-0.1,0.3-0.1,0.5-0.1c0.7,0,1.2,0.5,1.2,1.3
		c0.1,1.3-1.2,3.2-4.5,3.2c-8.5,0-20.4-5.8-31.6-5.8c-16.6,0-27.6,9.3-27.6,20.2c0,6.8,5.6,11.2,11.2,11.2c7.8,0,11.7-6.4,11.7-9.8
		c0-3.2-2.2-5.3-4.7-5.3c-0.8,0-1.8,0.2-2.8,1.1c1.2,0,1.4,0.7,1.4,1.2c0,0.9-0.6,1.5-1.7,1.5s-1.8-1.2-1.9-3
		c-0.1-5.2,5.1-12.2,16.3-12.2c2.4,0,5.4,0.6,8.4,1.9c1.4,0.6,1,0.7-0.2,1.2c-2.7,0.9-5.3,3.6-6.9,6.3l-0.4,0.6
		c-2.6,4.3-5.2,8.7-7.8,12.7h-1.4l-2,4.5c-3.9,4.7-8.3,7.9-13.5,7.9c-1.7,0-3-0.8-3-2.4c0-0.9,0.7-1.5,1.7-1.5
		c-0.9-2.2-3.6-3.5-6.6-3.5c-5.8,0-10,5-10,10c0,7.8,7,13,14.8,13c12.7,0,20.5-11.2,26.6-22.3H56.1z"/>
	<path class="st0" d="M114.1,29c-3.4,0-5.8,1.7-7.1,4c-1.5,3-3.7,5.6-5.7,7.3c0.4-1.7,0.7-3.3,0.7-4.8c0-3.7-2.2-6.6-5.7-6.6
		C87,29.1,79.2,40,77.8,48.1c-0.9,1.1-1.8,1.7-2.9,1.7c-0.6,0-1-0.5-1-1.2c0-3.6,6-9.6,6-14.9c0-2.7-1.5-4.8-5.3-4.8
		c-2.1,0-3.9,0.8-5.5,2c-0.1,0-0.1,0-0.1-0.1c1.2-2.5,2.9-4.7,3.2-5.2h-4.5c-2.7,5.9-6.6,11.6-10.2,17c0.2,0,0.4,0,0.5-0.1
		c1.3-0.1,2.6,0.6,3.5,1.5c0.3,0.3,0.5,0.6,0.7,0.9c1.4-2.7,3-5.7,4.5-8.6h0.9c0.6,0,0.8,0.4,0.8,0.8c0,2.3-6.5,9.9-6.5,16.1
		c0,2.7,1.2,5,5,5c4.5,0,8.2-4.3,10.5-8.5c-0.2,5,1.8,8.7,6.9,8.7c4.9,0,10.1-5,13.5-10.9c2.9-1.9,5.8-5.3,7.8-8.3
		c0.1,1.4,0.4,2.8,0.4,3.9c0,3.1-1.2,6.1-4.5,6.1c-1,0-1.9-0.9-2.1-1.8c-1.7,1.1-2.4,3.1-2.4,4.7c0,3.9,3,6.1,7.1,6.1
		c7.3,0,12-6.6,12-12.5c0-2.7-1.1-5.4-1.1-7.9c0-2.8,1.7-5,4.4-5c0.3,0,0.6,0,0.9,0.1C120.3,31.4,118.3,29,114.1,29z M96.7,41.5
		c-4,1-5.5,5.5-4.7,7.2c-1,0.9-2,1.5-2.9,1.5c-3.7,0,4.2-15.3,7.4-15.3C98.6,34.9,98.2,38.1,96.7,41.5z"/>
	<path class="st0" d="M153.5,29.8l-1.9,4.2L146.7,44c-0.7,1.2-2.1,4.2-3.4,4.3c-1.6,0.2-1.4-1.4,0.6-5.4l6.3-13.2h-9.3
		c-2.5,4.4-6.2,11.2-8.2,16.7c-1.3,2.1-2.7,3.6-4.1,3.6c-0.9,0-1.4-0.7-1.4-1.5c0-1.2,1.4-3.8,2-5.2l5.3-11.4h3l1.1-2.2h-3l4.6-9.8
		c-2.4,0.9-7.3,1.8-10.1,0.6l-4.4,9.1h-2l-1.2,2.2h2.1l-5.8,12c-3.1,5.9-5.8,14.4,2.2,14.4c5,0,8.7-5.1,10.8-9.4
		c-0.4,1.3-0.6,2.5-0.6,3.5c0,3.2,1.9,5.3,4.8,5.3c3.8,0,6.8-3.8,9.1-8.6l0.9-1.9v0.2l-0.1,0.7c-3.3,8.2-8.1,14-11.8,14
		c-2,0-3-2.4-0.6-3.5c-4.5-3.5-11.4,0.4-11.4,6.1c0,5.8,5.3,8.9,10.2,8.9c7.6,0,13.2-4.4,17.4-13.2c2.2-4.8,10.5-25.8,13.6-30.7
		H153.5z"/>
	<path class="st0" d="M235.8,59.7c0.2,0.4,0.4,0.6,0.4,0.9c0,1.2-1,2-2.1,2c-1.9,0-2.7-1.7-2.7-3.9c0-7.7,10.7-37.4,23.5-37.4
		c1.2,0,2.7,0.6,3,1.6c3.1-0.7,5.2-3.2,5.2-5.9c0-2.4-2-4.7-6.4-4.7c-11.1,0.3-23.4,6.5-33.6,14.1c0.5-3.7,1.4-7.1,4.2-8.7
		c-6.9-1.9-14.4-10.9-26-10.9c-8.5,0-16.3,5-16.3,13.5c0,5.8,4.7,8.8,9.1,8.8c2.4,0,4.8-0.7,5.8-1.9c-1.5-0.2-2.2-1.4-2.2-2.7
		c0-4.8,5.8-7.6,11.4-7.6c3,0,6.1,0.7,8.9,1.2c-15.6,5.1-22.5,30.9-37.9,30.9c-1.7,0-3-0.8-3-2.4c0-0.9,0.7-1.5,1.7-1.5
		c-0.9-2.2-3.6-3.5-6.6-3.5c-5.8,0-10,5-10,10c0,7.8,7,13,14.8,13c14,0,22.1-13.7,28.6-25.8c1.8-3.4,7.2-13,14-17.4
		c-2.4,2.9-3.6,7.3-4.3,11.7c-7.9,7.4-13.2,15.1-13.2,19.7c0,5.5,4,7.1,6.3,7.1c6.8,0,11.7-6.1,13.3-12.2c1.1-4.5,1-9.7,1.1-14.5
		c6.3-5,13.9-9.7,21.1-12.3c-6.8,4.7-12.9,13.1-17.3,21.5c-4.7,9-7.8,17.9-7.8,23.5c0,7.6,4.9,13,11.7,13c8.9,0,12.5-7,12.5-11.4
		C242.9,62.2,239.6,58.9,235.8,59.7z M211.1,48.8c-0.4,0-0.8-0.5-0.7-1.2c0.1-1.8,1.7-4.2,4-6.9C213.9,45.3,213.2,48.8,211.1,48.8z"
		/>
	<path class="st0" d="M302.3,20c-2.4,0.9-7.3,1.8-10.1,0.6l-4.4,9.1h-2l-1.2,2.2h2.1L281,44c-0.6,1.1-1.2,2.3-1.6,3.5
		c-1,1.4-2,2.3-3.3,2.3c-0.6,0-1-0.5-1-1.2c0-3.6,6-9.6,6-14.9c0-2.7-1.5-4.8-5.3-4.8c-3.4,0-6.5,2-8.6,5.3h-0.6l2.7-4.5h-9
		c-2.1,4.8-5.3,11.4-8.4,17.5c-1.1,1.6-2.2,2.6-3.5,2.6c-0.8,0-1.2-0.6-1-1.6c0.1-1.1,1-2.8,2.1-5.1l6.3-13.4h-9.7L238.9,44
		c-3.1,5.9-5.8,14.4,2.2,14.4c2.6,0,4.7-1.5,6.5-3.5c-0.8,1.4-1.5,2.6-2.2,3.8c1.7-0.6,3.9-1.3,6.5-1.4c2.2-0.1,5.2,0.4,5.2,0.4
		l4.9-10.9c2.3-5,5.1-10.2,7-10.2c0.6,0,0.8,0.4,0.8,0.8c0,2.7-6.5,9.9-6.5,16.1c0,2.7,1.2,5,5,5c4.3,0,7.8-3.8,10.1-7.8
		c-1,4.2-0.4,7.8,4.8,7.8c5.8,0,9.9-7.1,11.8-11.7l0.4-1.2c-1.4,2.5-3,4.5-4.7,4.5c-0.9,0-1.4-0.7-1.4-1.5c0-1.2,1.4-3.8,2-5.2
		l5.3-11.4h3l1.1-2.2h-3L302.3,20z"/>
</g>
</svg>
