<svg width="384" height="76" viewBox="0 0 384 76" fill="none" xmlns="http://www.w3.org/2000/svg">
<g filter="url(#filter0_d)">
<path d="M38.592 36.72C38.592 42.768 33.984 46.8 29.376 46.8C26.496 46.8 23.904 45.216 23.904 42.264C23.904 39.96 25.632 39.096 26.64 39.096C27.504 39.096 28.44 39.6 28.44 40.536C28.44 40.752 28.368 41.112 28.296 41.256C28.368 41.328 28.584 41.4 29.016 41.4C31.248 41.4 34.848 39.096 34.848 35.064C34.848 30.96 31.032 27.432 25.344 27.432C16.92 27.432 10.008 34.848 10.008 43.92C10.008 53.64 18.072 60.696 28.008 60.696C40.248 60.696 49.032 49.968 49.032 39.816C49.032 32.112 45.144 26.352 45.144 22.608C45.144 19.872 46.8 18.072 49.248 18.072C51.048 18.072 52.488 19.368 52.488 21.024C52.488 22.32 51.624 24.048 49.896 24.336C50.688 24.84 51.696 24.984 52.632 24.984C57.6 24.984 61.272 20.52 61.272 16.056C61.272 10.44 55.8 6.048 48.528 6.048C40.176 6.048 33.84 12.024 33.84 19.656C33.84 25.704 38.592 30.96 38.592 36.72ZM82.2195 25.776H73.5075L71.8515 29.952H71.5635C71.7795 27.648 70.9155 24.984 67.6755 24.984C59.3235 24.984 49.8195 39.096 49.8195 48.384C49.8195 52.056 51.7635 54.36 54.6435 54.36C58.2435 54.36 61.4115 50.4 63.6435 45.864C62.8515 50.112 63.3555 54.432 67.7475 54.432C73.4355 54.432 77.2515 47.376 79.1235 42.768L79.4835 41.544L78.9795 42.408C77.6835 44.496 76.3875 45.864 74.9475 45.864C72.6435 45.864 74.5155 42.048 75.5235 39.96L82.2195 25.776ZM66.3075 38.592C64.8675 41.4 63.1395 44.352 62.1315 44.352C59.1795 44.352 65.6595 30.888 68.2515 30.888C69.8355 30.888 66.9555 37.296 66.3075 38.592ZM104.089 9.648C101.641 10.584 96.8169 11.448 94.0089 10.296L79.8249 40.032C76.7289 45.936 74.7849 54.432 81.9849 54.432C87.6729 54.432 91.9929 46.584 93.6489 41.544C92.2089 44.064 90.7689 45.864 89.1129 45.864C88.3209 45.864 87.8889 45.216 88.1049 44.28C88.2489 43.2 89.1129 41.472 90.1929 39.168L104.089 9.648ZM97.7704 28.008H99.8584L94.0984 40.032C91.0024 45.936 88.3384 54.432 96.2584 54.432C102.09 54.432 106.194 47.376 108.066 42.768L108.426 41.544C106.986 44.064 105.402 46.08 103.746 46.08C102.81 46.08 102.378 45.36 102.378 44.568C102.378 43.344 103.746 40.752 104.394 39.384L109.722 28.008H112.746L113.826 25.776H110.802L115.41 15.984C112.962 16.92 108.138 17.784 105.33 16.632L100.938 25.776H98.9224L97.7704 28.008ZM132.051 40.032C129.243 43.992 124.491 46.224 121.971 46.224C118.731 46.224 117.507 44.712 117.507 42.192C117.507 41.544 117.651 40.536 117.939 39.456C118.083 41.544 119.163 42.84 121.467 42.84C127.587 42.84 132.699 37.152 132.987 31.608C133.203 27.72 130.899 24.984 126.435 24.984C115.851 24.984 107.139 37.368 107.139 45.864C107.139 50.904 109.515 54.648 115.131 54.648C121.467 54.648 128.235 49.536 132.051 40.464V40.032ZM125.067 30.096C125.499 30.096 125.859 30.384 125.859 30.888C125.859 33.264 122.259 37.368 120.459 37.368C119.163 37.368 119.811 35.784 120.099 35.352C121.827 32.256 124.059 30.096 125.067 30.096ZM170.008 9.648C167.56 10.584 163.528 11.448 160.72 10.296L152.224 29.448H151.72C151.792 27.216 151.216 24.984 147.832 24.984C139.48 24.984 129.976 39.096 129.976 48.384C129.976 51.552 131.92 54.36 134.8 54.36C138.4 54.36 141.568 50.328 143.872 45.792C142.864 50.184 143.224 54.432 147.904 54.432C153.592 54.432 157.912 46.584 159.568 41.544C158.128 44.064 156.688 45.864 155.032 45.864C154.24 45.864 153.808 45.216 154.024 44.28C154.168 43.2 155.032 41.472 156.112 39.168L170.008 9.648ZM146.032 39.312C144.736 41.904 143.152 44.352 142.288 44.352C139.336 44.352 145.816 30.888 148.408 30.888C149.92 30.888 147.832 35.568 147.256 36.864L146.032 39.312ZM192.783 39.24C193.215 39.816 193.503 40.176 193.431 41.04C193.359 45 189.975 46.8 187.527 46.8C183.927 46.8 182.343 44.568 182.343 40.68C182.343 28.512 195.879 13.32 203.295 13.32C205.815 13.32 206.247 14.544 206.247 15.552C206.247 16.632 205.527 17.712 204.303 17.712C203.727 17.712 203.223 17.424 203.223 16.776C201.063 17.856 200.055 20.016 199.983 21.96C199.911 25.056 202.503 27.72 206.967 27.72C212.799 27.72 217.047 22.608 217.191 17.208C217.263 13.032 213.879 7.488 203.727 7.488C188.463 7.488 167.943 26.208 167.943 44.856C167.943 54.288 174.423 61.92 184.719 61.92C194.079 61.92 204.159 54.72 204.375 45.648C204.447 40.968 200.919 38.016 197.031 38.016C195.591 38.016 194.223 38.376 192.783 39.24ZM243.362 21.816C241.706 31.104 233.21 45.864 230.402 45.864C228.53 45.864 230.258 41.976 231.266 39.96L237.962 25.776H229.25L227.594 29.952H227.306C227.522 27.648 226.658 24.984 223.418 24.984C215.066 24.984 205.562 39.096 205.562 48.384C205.562 51.552 207.506 54.36 210.386 54.36C213.986 54.36 217.154 50.328 219.458 45.792C218.738 50.04 220.106 54.432 224.642 54.432C232.85 54.432 238.826 42.696 241.562 37.296L243.938 32.616H244.802C245.45 32.616 245.594 33.048 245.594 33.408C245.594 35.712 239.114 43.344 239.114 49.464C239.114 52.2 240.338 54.432 244.082 54.432C250.202 54.432 254.81 46.584 256.466 41.544C254.954 44.136 253.658 45.864 251.858 45.864C251.21 45.864 250.85 45.36 250.85 44.712C250.85 41.112 256.826 35.064 256.826 29.808C256.826 27.072 255.314 25.056 251.57 25.056C249.482 25.056 247.826 25.992 246.458 27.36H245.882C247.106 24.84 248.906 22.32 249.194 21.816H243.362ZM222.05 38.592C220.61 41.4 218.882 44.352 217.874 44.352C214.922 44.352 221.402 30.888 223.994 30.888C225.578 30.888 222.698 37.656 222.05 38.592ZM286.97 25.776H278.258L276.602 29.952H276.314C276.53 27.648 275.666 24.984 272.426 24.984C264.074 24.984 254.569 39.096 254.569 48.384C254.569 52.056 256.514 54.36 259.394 54.36C262.994 54.36 266.162 50.4 268.394 45.864C267.602 50.112 268.106 54.432 272.498 54.432C278.186 54.432 282.002 47.376 283.874 42.768L284.234 41.544L283.73 42.408C282.434 44.496 281.138 45.864 279.698 45.864C277.394 45.864 279.266 42.048 280.274 39.96L286.97 25.776ZM271.058 38.592C269.618 41.4 267.89 44.352 266.882 44.352C263.93 44.352 270.41 30.888 273.002 30.888C274.586 30.888 271.706 37.296 271.058 38.592ZM306.967 43.272C308.551 39.816 311.791 32.616 313.879 32.616C314.527 32.616 314.671 33.048 314.671 33.408C314.671 34.992 311.863 39.312 309.775 43.344C307.615 47.664 306.679 54.432 313.159 54.432C319.279 54.432 323.887 46.584 325.543 41.544C324.031 44.136 322.735 45.864 320.935 45.864C320.287 45.864 319.927 45.36 319.927 44.712C319.927 41.112 325.903 35.064 325.903 29.808C325.903 27.072 324.391 25.056 320.647 25.056C317.263 25.056 314.383 27.072 312.223 30.312H311.791C312.727 26.928 310.567 25.056 307.255 25.056C303.871 25.056 300.775 27.072 298.615 30.312H297.967L300.703 25.776H291.487C287.887 33.912 281.479 47.088 276.943 54.72C278.599 54.072 280.831 53.424 283.423 53.28C285.655 53.136 287.887 53.64 287.887 53.64L293.215 43.272C295.663 38.376 298.759 32.616 300.631 32.616C301.207 32.616 301.423 32.904 301.423 33.264C301.423 34.056 300.919 34.992 300.199 36.36L290.767 54.288L290.551 54.72C292.207 54.072 294.439 53.424 297.031 53.28C299.263 53.136 302.215 53.64 302.215 53.64L306.967 43.272ZM349.387 40.032C346.579 43.992 341.827 46.224 339.307 46.224C336.067 46.224 334.843 44.712 334.843 42.192C334.843 41.544 334.987 40.536 335.275 39.456C335.419 41.544 336.499 42.84 338.803 42.84C344.923 42.84 350.035 37.152 350.323 31.608C350.539 27.72 348.235 24.984 343.771 24.984C333.187 24.984 324.475 37.368 324.475 45.864C324.475 50.904 326.851 54.648 332.467 54.648C338.803 54.648 345.571 49.536 349.387 40.464V40.032ZM342.403 30.096C342.835 30.096 343.195 30.384 343.195 30.888C343.195 33.264 339.595 37.368 337.795 37.368C336.499 37.368 337.147 35.784 337.435 35.352C339.163 32.256 341.395 30.096 342.403 30.096ZM373.245 9.648C370.797 10.584 365.973 11.448 363.165 10.296L348.981 40.032C345.885 45.936 343.941 54.432 351.141 54.432C356.829 54.432 361.149 46.584 362.805 41.544C361.365 44.064 359.925 45.864 358.269 45.864C357.477 45.864 357.045 45.216 357.261 44.28C357.405 43.2 358.269 41.472 359.349 39.168L373.245 9.648Z" fill="#EFC570"/>
</g>
<defs>
<filter id="filter0_d" x="0.0078125" y="0.0478516" width="383.237" height="75.8721" filterUnits="userSpaceOnUse" color-interpolation-filters="sRGB">
<feFlood flood-opacity="0" result="BackgroundImageFix"/>
<feColorMatrix in="SourceAlpha" type="matrix" values="0 0 0 0 0 0 0 0 0 0 0 0 0 0 0 0 0 0 127 0" result="hardAlpha"/>
<feOffset dy="4"/>
<feGaussianBlur stdDeviation="5"/>
<feColorMatrix type="matrix" values="0 0 0 0 0 0 0 0 0 0 0 0 0 0 0 0 0 0 1 0"/>
<feBlend mode="normal" in2="BackgroundImageFix" result="effect1_dropShadow"/>
<feBlend mode="normal" in="SourceGraphic" in2="effect1_dropShadow" result="shape"/>
</filter>
</defs>
</svg>
