<?xml version="1.0" encoding="utf-8"?>
<!-- Generator: Adobe Illustrator 24.3.0, SVG Export Plug-In . SVG Version: 6.00 Build 0)  -->
<svg version="1.1" id="Layer_1" xmlns="http://www.w3.org/2000/svg" xmlns:xlink="http://www.w3.org/1999/xlink" x="0px" y="0px"
	 viewBox="0 0 219 87" style="enable-background:new 0 0 219 87;" xml:space="preserve">
<style type="text/css">
	.st0{fill:#09A24D;}
</style>
<g>
	<path class="st0" d="M88.3,24.2c3.3,0,6.6-2.7,7.5-6s-1.1-6-4.4-6c-3.3,0-6.7,2.7-7.6,6C83,21.5,85,24.2,88.3,24.2z"/>
	<path class="st0" d="M129,24.2c3.3,0,6.6-2.7,7.5-6c0.9-3.3-1.1-6-4.4-6s-6.7,2.7-7.6,6C123.7,21.5,125.7,24.2,129,24.2z"/>
	<path class="st0" d="M193.3,48.9c-0.8,0-1.2-0.6-1-1.6c0.1-1.1,1-2.8,2.1-5.1l13.9-29.5c-2.4,0.9-7.3,1.8-10.1,0.6L184,43
		c-0.6,1.1-1.1,2.2-1.5,3.4c-1.1,1.5-2.2,2.5-3.4,2.5c-2.3,0-0.4-3.8,0.6-5.9l6.7-14.2h-8.7L176,33h-0.3c0.2-2.3-0.6-5-3.9-5
		c-6.9,0-14.7,9.7-17.1,18.3c-1.1,1.6-2.1,2.5-3.5,2.5c-0.6,0-1-0.5-1-1.2c0-3.6,6-9.6,6-14.9c0-2.7-1.5-4.8-5.3-4.8
		c-3.4,0-6.5,2-8.6,5.3h-0.6l2.7-4.5h-9c-2.1,4.8-5.3,11.4-8.4,17.5c-1.1,1.6-2.2,2.6-3.5,2.6c-0.8,0-1.2-0.6-1-1.6
		c0.1-1.1,1-2.8,2.1-5.1l6.3-13.4h-9.7L114.1,43c-3.1,5.9-5.8,14.4,2.2,14.4c2.6,0,4.7-1.5,6.5-3.5c-0.8,1.4-1.5,2.6-2.2,3.8
		c1.7-0.6,3.9-1.3,6.5-1.4c2.2-0.1,5.2,0.4,5.2,0.4l4.9-10.9c2.3-5,5.1-10.2,7-10.2c0.6,0,0.8,0.4,0.8,0.8c0,2.7-6.5,9.9-6.5,16.1
		c0,2.7,1.2,5,5,5c4.7,0,8.5-4.7,10.8-9.1c-0.2,1.1-0.3,2.1-0.3,3.1c0,3.7,1.9,6,4.8,6c3.6,0,6.8-4,9-8.5c-0.8,4.2-0.3,8.6,4.1,8.6
		c4.3,0,7.5-4,9.7-8c-0.9,4.2-0.2,8,4.6,8c5.7,0,10-7.8,11.7-12.9C196.4,47.1,194.9,48.9,193.3,48.9z M170.4,41.6
		c-1.4,2.8-3.2,5.8-4.2,5.8c-3,0,3.5-13.5,6.1-13.5C174,33.9,171.1,40.3,170.4,41.6z"/>
	<path class="st0" d="M60.2,19.6c0-5.7-6.5-8.4-12-8.4h-0.4c-7.8,0-17.2,5.4-24.3,13.2c-0.9-1.2-1.3-2.6-1.3-3.9c0-2.4,1.3-4,3.2-4
		c0.7,0,1.3,0.6,1.3,1.1v0.1c2-1.4,2.9-3.3,2.9-5.3c0-3.2-2.6-6.3-6.8-6.3c-7.4,0-12,5.9-12,12.3c0,4.7,2.4,9.6,7.3,13
		c-3.5,5.5-5.9,11.5-5.9,17.9c0,7.1,3.2,13.1,12.3,13.1c13.7,0,25.3-19.7,27.4-31.2C56.2,28.6,60.2,24.7,60.2,19.6z M26.5,52.4
		c-1.9,0.2-2.5-1.3-2.4-3c0.1-3.2,2.2-8.6,5.2-14c1.4,0.1,2.8,0.2,4.3,0.2c1.8,0,3.8-0.1,5.8-0.4C36.1,43.3,30.1,52,26.5,52.4z
		 M49.7,22.2c-1.9-1.9-5-2.4-8.6,0.1c0.9,1.3,0.9,3.5,0.4,6.1c-2.2,0.9-4.3,1.5-6.3,1.5c-0.9,0-1.9-0.1-2.7-0.2
		c4.9-7.4,10.8-13.6,15.3-14c2.7,0,3.5,1.1,3.5,2.4C51.2,19.6,50.6,20.9,49.7,22.2z"/>
	<path class="st0" d="M109.2,28.8l-1.5,3.9h-0.4c0.1-2.3-0.4-4.7-3.9-4.7c-6.9,0-14.5,9.7-16.8,17.7c-1.2,1.9-2.4,3.2-3.8,3.2
		c-0.8,0-1.2-0.6-1-1.6c0.1-1.1,1-2.8,2.1-5.1l6.3-13.4h-9.7L73.4,43c-0.6,1.1-1.2,2.3-1.7,3.6c-1,1.4-2,2.3-3.3,2.3
		c-0.6,0-1-0.5-1-1.2c0-3.6,6-9.6,6-14.9c0-2.7-1.5-4.8-5.3-4.8c-2.1,0-3.9,0.8-5.5,2c-0.1,0-0.1,0-0.1-0.1c1.2-2.5,2.9-4.7,3.2-5.2
		h-4.5c-1.7,3.9-4,7.6-6.4,11.3c-0.1,0.1-0.2,0.3-0.3,0.4c1.9,0.3,3.2,1.6,3.7,3.1c1.2-2.2,2-3.8,2.1-4.1h0.9c0.6,0,0.8,0.4,0.8,0.8
		c0,2.3-6.5,9.9-6.5,16.1c0,2.7,1.2,5,5,5c4.2,0,7.8-3.8,10.1-7.8c-1,4.1-0.4,7.8,4.8,7.8c5.1,0,8.6-5.7,10.6-10.2
		c-0.2,1.1-0.3,2.1-0.3,3c0,3.2,1.9,6,4.8,6c3.7,0,6.8-3.7,9.1-8.1c0.4-0.7,0.7-1.4,1-2.1v0.4l-0.1,0.7c-3.3,8.2-8.1,14-11.8,14
		c-2,0-3-2.4-0.6-3.5c-4.5-3.5-11.4,0.4-11.4,6.1c0,5.8,5.3,8.9,10.2,8.9c7.6,0,13.2-4.4,17.4-13.2c2.2-4.8,10.5-25.8,13.6-30.7
		H109.2z M102,41.4c-1.5,3-3.2,6-4.2,6c-3,0,3.5-13.5,6.1-13.5C105.6,33.9,102.6,40.4,102,41.4z"/>
</g>
</svg>
