<svg width="99" height="60" viewBox="0 0 99 60" fill="none" xmlns="http://www.w3.org/2000/svg">
<path d="M22.2142 36.87C24.7239 33.2882 25.4243 28.5319 27.0002 24.2455C28.8679 19.2544 31.436 15.9074 33.4788 15.79C33.3037 14.733 32.1947 13.911 31.0858 13.911C28.8679 13.911 26.3581 15.3789 25.0741 20.5462C23.615 22.0142 21.9223 23.0711 20.6967 23.0711C18.829 23.0711 17.9535 21.9554 17.9535 20.0764C17.9535 16.6707 20.0546 13.1476 22.6227 10.5053C25.3076 11.3273 27.7006 12.2668 29.9768 12.3843C33.1869 12.6191 36.1636 10.7401 36.1636 7.86291C36.1636 4.69209 32.6617 3.10668 29.2764 3.10668C27.4087 3.10668 25.4243 3.57643 23.3231 4.3985C20.3465 2.63693 16.4943 0.934082 11.4749 0.934082C7.09745 0.934082 1.3776 3.69387 1.3776 9.27216C1.3776 12.6779 4.06243 14.4394 7.03908 14.4394C8.14803 14.4394 9.08188 14.2045 9.66554 13.7348C8.90679 13.4412 8.49823 12.7953 8.49823 12.0907C8.49823 10.2117 11.008 8.68497 13.6344 8.68497C14.3932 8.68497 15.1519 8.74369 15.9107 8.80241C11.8834 12.2668 8.84842 17.0231 8.84842 21.838C8.84842 26.3006 11.1247 29.4127 15.2687 29.4127C18.1286 29.4127 21.0469 27.6512 23.615 25.0088C20.5799 31.644 14.8017 33.4056 11.7667 33.2295C10.541 33.1707 9.72391 32.6423 9.72391 31.5853C9.72391 30.9394 10.2492 30.0586 11.1247 30.0586C11.2414 30.0586 11.4749 30.0586 11.7083 30.1761C11.3581 28.7668 9.19862 28.2384 8.0313 28.2384C3.36204 28.2384 0.793945 31.8202 0.793945 35.4021C0.793945 40.5693 5.11301 43.153 9.84064 43.2704C14.1013 43.5053 19.2375 41.0391 22.2142 36.87ZM29.9185 6.51237C30.8523 6.68853 31.9029 6.98213 31.7278 7.68675C31.6111 8.27394 30.7939 8.27394 29.8017 8.03906C29.1597 7.92163 28.4009 7.51059 27.5255 6.92341C28.4593 6.57109 29.2181 6.39494 29.9185 6.51237Z" fill="white"/>
<path d="M48.8871 23.9518C52.7976 23.9518 56.066 20.3112 56.2411 16.7293C56.3579 14.2044 54.8987 12.4429 52.0388 12.4429C45.2684 12.4429 39.7236 20.4286 39.7236 25.8895C39.7236 29.119 41.2411 31.5265 44.8015 31.5265C48.3034 31.5265 51.9804 29.0603 54.4902 24.7151C54.4318 25.1261 54.3734 25.5372 54.3734 25.8895C54.3734 29.119 55.891 31.5265 59.4513 31.5265C62.4279 31.5265 65.5213 29.7649 67.9727 26.4767C66.9804 28.3557 65.9882 30.1172 65.1711 31.5852C66.2217 31.1742 67.6808 30.7632 69.3151 30.6457C70.7159 30.5283 72.6419 30.8806 72.6419 30.8806L75.7937 23.893C77.2528 20.7222 79.0622 17.3753 80.2295 17.3753C80.638 17.3753 80.7548 17.6688 80.7548 17.9037C80.7548 19.6066 76.6108 24.3041 76.6108 28.2382C76.6108 29.9998 77.3696 31.4091 79.7626 31.4091C83.6731 31.4091 86.5913 26.3592 87.7003 23.1297C86.7081 24.7738 85.891 25.8895 84.782 25.8895C84.3734 25.8895 84.14 25.5372 84.14 25.1261C84.14 22.8361 87.9338 18.9019 87.9338 15.555C87.9338 13.7934 86.9415 12.5016 84.5485 12.5016C82.389 12.5016 80.4046 13.7934 79.0038 15.9073H78.5952L80.2878 12.9713H74.5096C73.3423 15.555 71.7664 18.9607 70.0738 22.3076C68.2645 24.7151 65.3462 26.1244 63.7703 26.1244C61.7275 26.1244 60.9104 25.1261 60.9104 23.5407C60.9104 23.1297 61.0271 22.4838 61.2022 21.7792C61.319 23.1297 61.961 23.9518 63.4785 23.9518C67.389 23.9518 70.6575 20.3112 70.8326 16.7293C70.9493 14.2044 69.4902 12.4429 66.6303 12.4429C60.9688 12.4429 56.2411 17.9624 54.782 23.0123C52.9727 24.95 50.5213 26.1244 49.1205 26.1244C47.0777 26.1244 46.2606 25.1261 46.2606 23.5407C46.2606 23.1297 46.3773 22.4838 46.5524 21.7792C46.7275 23.1297 47.4279 23.9518 48.8871 23.9518ZM48.0116 19.1368C49.1205 17.1404 50.5213 15.7311 51.1633 15.7311C51.4552 15.7311 51.6886 15.9073 51.6886 16.2596C51.6886 17.7863 49.4124 20.4286 48.245 20.4286C47.4279 20.4286 47.8365 19.4304 48.0116 19.1368ZM62.6614 19.1368C63.7703 17.1404 65.1711 15.7311 65.8131 15.7311C66.105 15.7311 66.3384 15.9073 66.3384 16.2596C66.3384 17.7863 64.0622 20.4286 62.8948 20.4286C62.0777 20.4286 62.4863 19.4304 62.6614 19.1368Z" fill="white"/>
<path d="M35.8721 33.8166C34.0044 33.8166 32.1951 35.2259 30.7943 37.2223H30.4441L31.8449 34.5212L33.7126 30.8807C33.9461 30.4696 37.2145 23.8931 37.2145 23.8931C39.0822 19.7241 44.5686 10.7401 49.7048 10.7401C50.7554 10.7401 51.9227 11.2098 51.8643 12.0319C54.7826 10.9163 55.6581 9.27213 55.6581 7.3344C55.6581 5.63156 53.9655 3.92871 51.339 3.92871C46.2612 3.92871 42.5258 9.85931 39.7243 16.4358H39.1406L40.7165 12.9714H35.8138C33.5375 18.1974 27.8177 30.6458 27.5842 31.233C24.1406 38.8077 19.2379 49.3771 17.1367 52.9002C18.1873 52.4892 19.6464 52.0782 21.2807 51.9607C22.5647 51.8433 24.4324 52.1956 24.4324 52.1956L25.483 49.7881C25.6581 51.1974 26.2418 52.4892 27.7593 52.6654C33.0122 53.2525 39.199 43.5639 39.199 37.6333C39.2573 35.5782 37.9149 33.8166 35.8721 33.8166ZM28.2262 46.8522C27.8177 46.8522 27.7009 46.265 27.876 45.7365C28.518 43.6814 29.3935 41.6849 30.4441 39.9821C31.1445 38.8664 31.6698 38.3967 32.02 38.3967C33.8877 38.4554 29.9188 46.8522 28.2262 46.8522Z" fill="white"/>
<path d="M92.8363 45.2082C91.4355 45.2082 89.8597 45.8541 89.1593 46.8524C89.918 47.0285 90.1515 47.7919 90.1515 48.379C90.1515 49.7296 89.1009 51.0801 87.4667 51.0801C85.6573 51.0801 85.132 49.7883 85.132 48.5552C85.132 46.9111 85.599 45.5605 86.5328 43.6228C87.5834 41.5089 89.276 39.1602 89.276 36.9289C89.276 35.1673 88.2838 33.8755 85.8908 33.8755C83.848 33.8755 82.1554 34.9324 80.813 36.8114L80.4628 37.2812H80.1126L81.8052 34.3452H76.027C74.7429 37.2812 72.8169 41.2741 70.8908 45.0321C70.0737 46.3826 69.2565 47.2634 68.3227 47.2634C66.8635 47.2634 68.0309 44.7972 68.6729 43.4467L72.9336 34.3452H67.3888L66.3383 37.0463H66.1632C66.2799 35.5783 65.7546 33.8755 63.6534 33.8755C59.7429 33.8755 55.4822 38.7492 53.4394 43.6815C51.6301 46.1477 48.7118 47.557 47.1359 47.557C45.0931 47.557 44.276 46.5588 44.276 44.9734C44.276 44.5623 44.3927 43.9164 44.5678 43.2118C44.6846 44.5623 45.3266 45.3844 46.8441 45.3844C50.7546 45.3844 54.0231 41.7438 54.1982 38.162C54.3149 35.6371 52.8558 33.8755 49.9958 33.8755C43.2254 33.8755 37.6807 41.8613 37.6807 47.3221C37.6807 50.5516 39.1982 52.9591 42.7585 52.9591C46.4939 52.9591 50.4628 50.1406 52.9725 45.0908C52.5639 46.4413 52.2721 47.7331 52.2721 48.9662C52.2721 51.315 53.4978 52.783 55.3655 52.783C57.6418 52.783 59.6846 50.258 61.1437 47.3221C60.6184 50.0819 60.9686 52.8417 63.7702 52.8417C65.5211 52.8417 66.9803 51.7847 68.206 50.3168C67.6807 51.2563 67.1554 52.1958 66.6885 53.0178C67.739 52.6068 69.1982 52.1958 70.8324 52.0783C72.2332 51.9609 74.1593 52.3132 74.1593 52.3132L77.1359 45.6193C77.6029 44.5623 79.9958 38.8079 81.5717 38.8079C81.9803 38.8079 82.097 39.1015 82.097 39.3363C82.097 41.0979 77.8363 46.0303 77.8363 50.6104C77.8363 55.8363 81.9219 59.242 87.7585 59.242C93.3032 59.242 98.1476 55.3079 98.1476 50.3168C98.206 47.7331 96.0464 45.2082 92.8363 45.2082ZM46.027 40.452C47.1359 38.4556 48.5367 37.0463 49.1787 37.0463C49.4706 37.0463 49.704 37.2225 49.704 37.5748C49.704 39.1015 47.4277 41.7438 46.2604 41.7438C45.4433 41.7438 45.8519 40.7456 46.027 40.452ZM62.8947 42.5659C61.9608 44.3862 60.8519 46.2652 60.2099 46.2652C58.3421 46.2652 62.4861 37.6335 64.1204 37.6335C65.1709 37.5748 63.3032 41.6851 62.8947 42.5659Z" fill="white"/>
</svg>
