<svg width="44" height="47" viewBox="0 0 44 47" fill="none" xmlns="http://www.w3.org/2000/svg">
<path d="M21.6 46.65C21.5 46.55 21.3 46.45 21.2 46.35C14.4 43.05 7.5 39.75 0.7 36.45C0.2 36.25 0 35.85 0 35.35C0 27.25 0 19.25 0 11.15C0 10.55 0.2 10.25 0.7 10.05C7.6 6.74999 14.4 3.45 21.3 0.15C21.7 -0.05 22.1 -0.05 22.5 0.15C29.4 3.45 36.3 6.85 43.2 10.15C43.7 10.35 43.9 10.75 43.9 11.25C43.9 19.35 43.9 27.35 43.9 35.45C43.9 36.05 43.7 36.35 43.2 36.55C36.4 39.85 29.5 43.15 22.7 46.45C22.6 46.55 22.4 46.65 22.3 46.75C21.9 46.65 21.8 46.65 21.6 46.65ZM1.3 11.95C1.3 12.05 1.3 12.15 1.3 12.25C1.3 19.85 1.3 27.45 1.3 35.05C1.3 35.35 1.5 35.45 1.7 35.55C7.7 38.45 13.8 41.35 19.8 44.35C20.2 44.55 20.6 44.75 21.1 44.95C21.1 44.65 21.1 44.55 21.1 44.35C21.1 39.25 21.1 34.25 21.1 29.15C21.1 26.75 21.1 24.35 21.1 21.95C21.1 21.65 21 21.45 20.7 21.35C20.2 21.15 19.8 20.95 19.3 20.75C18.9 20.55 18.7 20.15 18.9 19.75C19.1 19.45 19.5 19.25 19.9 19.45C20.4 19.65 20.8 19.85 21.3 20.15C21.6 20.35 21.8 20.35 22.1 20.15C23.5 19.45 24.9 18.75 26.4 18.05C26.8 17.85 27.2 17.95 27.4 18.25C27.6 18.65 27.5 19.05 27 19.25C25.6 19.95 24.2 20.65 22.9 21.25C22.5 21.45 22.4 21.65 22.4 22.05C22.4 29.45 22.4 36.95 22.4 44.35C22.4 44.55 22.4 44.65 22.4 44.95C22.6 44.85 22.7 44.85 22.9 44.75C29.2 41.65 35.6 38.65 41.9 35.55C42.2 35.45 42.3 35.25 42.3 34.95C42.3 27.45 42.3 19.95 42.3 12.45C42.3 12.35 42.3 12.15 42.3 12.05C42.2 12.05 42.1 12.05 42.1 12.15C40.1 13.05 38.2 14.05 36.2 14.95C36.1 15.05 36 15.25 36 15.45C36 17.95 36 20.55 36 23.05C36 23.55 35.8 23.85 35.3 24.05C33.8 24.75 32.2 25.55 30.7 26.25C29.9 26.65 29.5 26.35 29.5 25.45C29.5 22.95 29.5 20.45 29.5 18.05C29.5 17.65 29.4 17.45 29 17.35C22.7 14.35 16.4 11.25 10.1 8.15C9.2 7.75 8.6 7.65 7.7 8.15C5.9 9.15 4 9.95001 2.1 10.85C2.3 10.95 2.4 11.05 2.5 11.05C7.1 13.25 11.6 15.45 16.2 17.65C16.5 17.75 16.7 17.85 17 18.05C17.3 18.25 17.4 18.55 17.3 18.95C17.1 19.25 16.8 19.35 16.5 19.35C16.4 19.35 16.2 19.25 16.1 19.15C12.8 17.55 9.5 15.95 6.2 14.35C4.6 13.45 3 12.75 1.3 11.95ZM41.5 10.85C41.4 10.75 41.3 10.75 41.3 10.75C34.9 7.65001 28.6 4.54999 22.2 1.54999C22 1.44999 21.8 1.44999 21.6 1.54999C20.3 2.14999 19.1 2.75001 17.8 3.35001C17.3 3.55001 16.8 3.85 16.2 4.15C16.4 4.25 16.6 4.35002 16.7 4.45002C22.6 7.25002 28.5 10.15 34.3 12.95C34.8 13.15 35.3 13.55 35.8 13.55C36.3 13.55 36.8 13.15 37.3 12.95C38.7 12.15 40 11.55 41.5 10.85ZM34.2 14.35C34 14.25 33.8 14.15 33.7 14.05C32.3 13.35 30.8 12.65 29.4 11.95C24.6 9.65002 19.8 7.34999 15 5.04999C14.8 4.94999 14.6 4.85002 14.5 4.95002C13.2 5.55002 12 6.15001 10.6 6.85001C11.8 7.45001 12.9 7.94999 14 8.54999C19.3 11.05 24.6 13.65 29.9 16.15C30.1 16.25 30.3 16.25 30.4 16.25C31.7 15.55 32.9 14.95 34.2 14.35ZM31 24.55C31.2 24.45 31.3 24.45 31.4 24.35C32.4 23.85 33.4 23.35 34.4 22.95C34.7 22.85 34.8 22.65 34.8 22.35C34.8 20.25 34.8 18.15 34.8 16.05C34.8 15.95 34.8 15.75 34.8 15.55C34.1 15.95 33.4 16.25 32.7 16.55C32.2 16.85 31.4 16.95 31.2 17.35C30.9 17.75 31.1 18.55 31.1 19.15C31 20.95 31 22.75 31 24.55Z" fill="#09A24D"/>
<path d="M10.2001 31.15C10.2001 31.85 9.70008 32.15 9.10008 31.85C7.80008 31.25 6.50008 30.55 5.20008 29.95C4.60008 29.65 4.00008 29.35 3.40008 29.05C2.90008 28.85 2.80008 28.45 2.90008 28.15C3.10008 27.75 3.50008 27.65 3.90008 27.85C5.80008 28.75 7.70008 29.65 9.60008 30.65C9.90008 30.85 10.1001 31.05 10.2001 31.15Z" fill="#09A24D"/>
<path d="M7.29981 33.0502C7.29981 33.6502 6.7998 34.0502 6.3998 33.8502C5.2998 33.3502 4.1998 32.8502 3.1998 32.2502C2.8998 32.0502 2.7998 31.7502 2.8998 31.3502C3.0998 31.0502 3.39981 30.8502 3.79981 31.0502C4.89981 31.5502 5.89981 32.0502 6.9998 32.5502C7.0998 32.7502 7.29981 32.9502 7.29981 33.0502Z" fill="#09A24D"/>
</svg>
