<svg width="35" height="38" viewBox="0 0 35 38" fill="none" xmlns="http://www.w3.org/2000/svg">
<path d="M17.6287 0C18.1287 0.2 18.3287 0.599982 18.3287 1.19998C18.3287 2.89998 18.3287 4.49998 18.3287 6.19998C18.3287 6.29998 18.3287 6.40001 18.3287 6.60001C18.4287 6.50001 18.5287 6.39999 18.6287 6.39999C19.9287 5.29999 21.1287 4.20001 22.4287 3.10001C22.8287 2.70001 23.3287 2.70001 23.7287 3.10001C24.1287 3.50001 24.1287 4.1 23.6287 4.5C22.3287 5.6 21.0287 6.69999 19.8287 7.79999C19.4287 8.19999 18.9287 8.49999 18.5287 8.89999C18.4287 8.99999 18.3287 9.19999 18.3287 9.29999C18.3287 10.2 18.3287 11 18.3287 11.9C18.3287 12.1 18.4287 12.2 18.6287 12.3C19.8287 13 21.0287 13.7 22.3287 14.5C22.5287 14.6 22.7287 14.6 22.9287 14.5C23.6287 14.1 24.3287 13.7 25.0287 13.3C25.3287 13.2 25.4287 13 25.4287 12.7C25.8287 10.6 26.2287 8.39999 26.7287 6.29999C26.9287 5.49999 27.4287 5.2 28.0287 5.5C28.4287 5.7 28.6287 6 28.5287 6.5C28.2287 8 27.9287 9.5 27.6287 11C27.5287 11.3 27.5287 11.6 27.4287 11.9C27.6287 11.8 27.7287 11.8 27.8287 11.7C29.2287 10.9 30.7287 9.99998 32.1287 9.19998C32.3287 9.09998 32.5287 9 32.7287 9C33.1287 9 33.5287 9.20001 33.6287 9.60001C33.7287 10 33.6287 10.4 33.2287 10.7C32.9287 10.9 32.5287 11.1 32.2287 11.3C31.0287 12 29.8287 12.7 28.7287 13.4C28.6287 13.5 28.5287 13.5 28.3287 13.6C29.9287 14.1 31.4287 14.6 32.9287 15.2C33.1287 15.3 33.3287 15.3 33.5287 15.4C34.0287 15.6 34.3287 16.1 34.1287 16.6C33.9287 17.1 33.4287 17.3 32.9287 17.2C31.7287 16.8 30.5287 16.4 29.3287 16C28.4287 15.7 27.4287 15.3 26.5287 15C26.3287 14.9 26.1287 15 26.0287 15C25.2287 15.4 24.5287 15.8 23.8287 16.3C23.6287 16.4 23.5287 16.5 23.6287 16.7C23.6287 18.2 23.6287 19.6 23.6287 21.1C23.6287 21.3 23.7287 21.4 23.9287 21.6C24.6287 22 25.4287 22.4 26.1287 22.8C26.3287 22.9 26.5287 22.9 26.7287 22.9C28.8287 22.2 30.9287 21.5 33.0287 20.7C33.5287 20.5 33.9287 20.6 34.2287 21C34.5287 21.4 34.4287 22 34.0287 22.2C33.8287 22.3 33.7287 22.4 33.5287 22.4C32.0287 22.9 30.5287 23.4 29.0287 23.9C28.9287 23.9 28.8287 24 28.6287 24C28.8287 24.1 28.9287 24.2 29.0287 24.2C30.4287 25 31.9287 25.9 33.3287 26.7C33.5287 26.8 33.7287 27 33.8287 27.2C34.0287 27.5 33.9287 28 33.6287 28.2C33.3287 28.5 33.0287 28.6 32.6287 28.4C32.5287 28.4 32.4287 28.3 32.2287 28.2C30.8287 27.4 29.3287 26.6 27.9287 25.7C27.8287 25.6 27.7287 25.6 27.5287 25.5C27.8287 27 28.1287 28.4 28.3287 29.8C28.4287 30.2 28.4287 30.5 28.5287 30.9C28.6287 31.4 28.3287 31.8 27.8287 32C27.4287 32.1 26.9287 31.9 26.8287 31.4C26.6287 30.7 26.5287 30 26.3287 29.3C26.0287 27.7 25.7287 26.2 25.4287 24.6C25.4287 24.4 25.2287 24.3 25.1287 24.2C24.4287 23.8 23.6287 23.3 22.8287 22.9C22.7287 22.8 22.5287 22.8 22.3287 22.9C21.0287 23.6 19.8287 24.4 18.5287 25.1C18.3287 25.2 18.3287 25.3 18.3287 25.5C18.3287 26.4 18.3287 27.2 18.3287 28.1C18.3287 28.3 18.4287 28.5 18.5287 28.6C20.2287 30.1 21.9287 31.5 23.6287 33C23.9287 33.2 24.1287 33.5 24.0287 33.9C24.0287 34.5 23.3287 34.9 22.7287 34.7C22.5287 34.6 22.3287 34.5 22.2287 34.3C21.0287 33.3 19.8287 32.2 18.6287 31.2C18.5287 31.1 18.4287 31.1 18.3287 30.9C18.3287 31.1 18.3287 31.2 18.3287 31.4C18.3287 33.1 18.3287 34.8 18.3287 36.5C18.3287 36.9 18.2287 37.1 17.9287 37.4C17.6287 37.6 17.3287 37.7 16.9287 37.5C16.5287 37.3 16.3287 37 16.3287 36.6C16.3287 35.3 16.3287 34 16.3287 32.8C16.3287 32.2 16.3287 31.6 16.3287 31C16.2287 31.1 16.1287 31.2 16.0287 31.2C14.7287 32.3 13.5287 33.4 12.2287 34.5C11.8287 34.9 11.3287 34.9 10.9287 34.5C10.5287 34.1 10.5287 33.5 11.0287 33.1C12.3287 32 13.6287 30.9 14.8287 29.8C15.2287 29.4 15.7287 29.1 16.1287 28.7C16.2287 28.6 16.3287 28.4 16.3287 28.3C16.3287 27.4 16.3287 26.6 16.3287 25.7C16.3287 25.6 16.2287 25.4 16.1287 25.3C14.8287 24.6 13.6287 23.8 12.3287 23.1C12.2287 23 12.0287 23 11.9287 23.1C11.1287 23.5 10.4287 24 9.62873 24.4C9.52872 24.5 9.42873 24.6 9.32873 24.8C8.92873 26.9 8.52872 29.1 8.02872 31.2C8.02872 31.3 8.02873 31.5 7.92873 31.6C7.72873 32.1 7.32873 32.4 6.82873 32.3C6.32873 32.2 6.02873 31.7 6.12873 31.2C6.42873 29.8 6.62873 28.4 6.92873 27C7.02873 26.6 7.02873 26.3 7.12873 25.9C6.92873 26 6.82873 26.1 6.72873 26.1C5.32873 26.9 3.82872 27.8 2.42873 28.6C2.22872 28.7 2.02873 28.8 1.82873 28.8C1.42873 28.8 1.02873 28.6 0.828726 28.2C0.728726 27.8 0.828726 27.3 1.32873 27C2.72873 26.2 4.22872 25.4 5.62873 24.5C5.82872 24.4 5.92873 24.3 6.12873 24.2C5.92873 24.1 5.82872 24.1 5.62873 24C4.12873 23.5 2.62873 23 1.02873 22.4C0.828725 22.3 0.728725 22.3 0.528725 22.2C0.228725 21.9 0.128726 21.4 0.328726 21.1C0.528726 20.7 1.02873 20.5 1.42873 20.7C2.72872 21.1 4.02873 21.6 5.22873 22C6.12873 22.3 6.92873 22.6 7.82873 22.9C7.92873 22.9 8.12873 22.9 8.32873 22.9C9.02873 22.5 9.82872 22.1 10.5287 21.6C10.6287 21.5 10.7287 21.3 10.7287 21.2C10.7287 19.7 10.7287 18.2 10.7287 16.7C10.7287 16.5 10.6287 16.4 10.4287 16.3C9.72873 15.9 9.02873 15.5 8.32873 15.1C8.02873 14.9 7.82872 14.9 7.52872 15C5.42872 15.7 3.42873 16.4 1.32873 17.2C0.928726 17.3 0.628726 17.3 0.328726 17C-0.171274 16.6 -0.071275 15.9 0.428725 15.6C0.528725 15.5 0.728725 15.4 0.928725 15.4C2.42873 14.9 3.92873 14.4 5.42873 13.9C5.52873 13.9 5.62873 13.8 5.82873 13.8C5.62873 13.7 5.52873 13.6 5.42873 13.6C4.02873 12.8 2.52872 11.9 1.12872 11.1C0.928725 11 0.728725 10.8 0.628725 10.6C0.428725 10.3 0.528725 9.80001 0.728725 9.60001C1.02873 9.30001 1.32873 9.19999 1.72873 9.39999C1.82873 9.49999 2.02872 9.50001 2.12872 9.60001C3.52872 10.4 4.92873 11.2 6.32873 12.1C6.42873 12.2 6.52873 12.2 6.72873 12.3C6.52873 11.1 6.22872 9.89998 6.02872 8.69998C5.92872 8.09998 5.82873 7.49999 5.72873 6.89999C5.62873 6.29999 5.92872 5.89999 6.52872 5.79999C6.92872 5.69999 7.42872 6 7.52872 6.5C7.72872 7.3 7.82872 8.09999 8.02872 8.89999C8.32872 10.3 8.62873 11.7 8.82873 13.2C8.82873 13.4 9.02873 13.6 9.22873 13.7C9.92873 14.1 10.6287 14.5 11.4287 14.9C11.6287 15 11.7287 15 11.9287 14.9C13.1287 14.2 14.4287 13.4 15.6287 12.7C15.7287 12.6 15.8287 12.4 15.8287 12.3C15.8287 11.4 15.8287 10.6 15.8287 9.69998C15.8287 9.49998 15.7287 9.29998 15.6287 9.19998C13.9287 7.69998 12.3287 6.29999 10.6287 4.79999C10.2287 4.49999 10.1287 4.00001 10.3287 3.60001C10.5287 3.10001 11.0287 2.90001 11.5287 3.10001C11.7287 3.20001 11.8287 3.29999 12.0287 3.39999C13.3287 4.49999 14.6287 5.59999 15.9287 6.79999C15.9287 6.59999 15.9287 6.49999 15.9287 6.39999C15.9287 4.79999 15.9287 3.1 15.9287 1.5C15.9287 0.9 16.1287 0.499982 16.6287 0.199982C17.3287 -1.83135e-05 17.4287 0 17.6287 0ZM21.5287 18.8C21.5287 18.1 21.5287 17.3 21.5287 16.6C21.5287 16.4 21.4287 16.3 21.3287 16.2C20.0287 15.5 18.8287 14.7 17.5287 14C17.3287 13.9 17.2287 13.9 17.0287 14C15.8287 14.7 14.5287 15.5 13.3287 16.2C13.2287 16.3 13.1287 16.5 13.1287 16.6C13.1287 18.1 13.1287 19.5 13.1287 21C13.1287 21.1 13.2287 21.3 13.3287 21.4C14.6287 22.1 15.8287 22.9 17.1287 23.6C17.2287 23.7 17.4287 23.7 17.5287 23.6C18.8287 22.9 20.0287 22.2 21.3287 21.4C21.4287 21.3 21.5287 21.2 21.5287 21C21.5287 20.2 21.5287 19.5 21.5287 18.8Z" fill="#09A24D"/>
</svg>
