<svg width="50" height="49" viewBox="0 0 50 49" fill="none" xmlns="http://www.w3.org/2000/svg">
<path d="M29.7 39.8001C29.7 40.4001 29.7 40.9001 29.7 41.5001C29.5 41.5001 29.3 41.5001 29.1 41.5001C23 41.5001 17 41.5001 10.9 41.5001C8.6 41.5001 7.2 40.1001 7.2 37.9001C7.2 36.1001 7.2 34.3001 7.2 32.6001C7.2 32.4001 7.2 32.3001 7.2 32.1001C7.2 32.1001 7.1 32.1001 7.1 32.0001C6.5 32.6001 6 33.2001 5.4 33.9001C5 33.4001 4.6 33.1001 4.2 32.6001C4.3 32.5001 4.4 32.4001 4.5 32.2001C5.7 31.0001 6.9 29.8001 8.1 28.6001C9.8 26.9001 9.9 24.8001 8.3 23.0001C7.9 22.5001 7.9 22.1001 8.4 21.6001C9.6 20.4001 10.7 19.3001 11.9 18.1001C12.2 17.8001 12.4 17.4001 12.2 16.9001C11.9 16.3001 11.2 16.2001 10.6 16.7001C9.5 17.8001 8.4 18.9001 7.4 19.9001C7.3 20.0001 7.1 20.2001 7 20.3001C6.6 19.9001 6.3 19.5001 5.8 19.1001C6.2 18.8001 6.6 18.4001 7 18.0001C7.1 17.9001 7.2 17.7001 7.3 17.5001C7.3 16.6001 7.3 15.7001 7.3 14.8001C6.3 14.8001 5.4 14.7001 4.5 14.8001C3.7 14.9001 3.2 15.6001 3.2 16.5001C3.2 18.4001 3.1 20.3001 3.2 22.3001C3.3 23.8001 2.9 24.9001 1.7 25.8001C1.5 25.9001 1.5 26.1001 1.3 26.3001C0.8 25.8001 0.5 25.4001 0 24.9001C0.3 24.6001 0.7 24.3001 1.1 23.9001C1.3 23.7001 1.4 23.4001 1.4 23.1001C1.4 20.9001 1.4 18.8001 1.4 16.6001C1.4 14.5001 2.8 13.1001 4.9 13.1001C5.6 13.1001 6.4 13.1001 7.2 13.1001C7.2 12.9001 7.2 12.7001 7.2 12.5001C7.2 10.5001 7.2 8.6001 7.2 6.6001C7.2 4.5001 8.6 3.1001 10.7 3.1001C22.2 3.1001 33.8 3.1001 45.3 3.1001C47.3 3.1001 48.8 4.50009 48.8 6.50009C48.8 14.1001 48.8 21.7001 48.8 29.2001C48.8 29.3001 48.8 29.4001 48.8 29.6001C48.2 29.6001 47.7 29.6001 47.1 29.6001C47.1 29.4001 47.1 29.2001 47.1 29.0001C47.1 21.6001 47.1 14.1001 47.1 6.7001C47.1 5.3001 46.5 4.7001 45.1 4.7001C33.7 4.7001 22.3 4.7001 10.8 4.7001C9.5 4.7001 8.8 5.3001 8.8 6.7001C8.8 9.6001 8.8 12.5001 8.8 15.4001C8.8 15.6001 8.8 15.7001 8.8 15.9001L8.9 16.0001C9.1 15.8001 9.2 15.5001 9.5 15.4001C10.6 14.4001 12.1 14.4001 13.1 15.4001C14.1 16.4001 14.1 18.0001 13.1 19.0001C12.6 19.6001 12 20.1001 11.5 20.6001C11 21.1001 10.4 21.6001 9.9 22.2001C10.5 23.1001 10.9 24.0001 11 25.0001C11.1 26.8001 10.5 28.3001 9.2 29.6001C8.9 29.9001 8.8 30.2001 8.8 30.6001C8.8 31.9001 8.8 33.1001 8.8 34.4001C8.8 35.7001 9.4 36.3001 10.8 36.3001C16.8 36.3001 22.9 36.3001 28.9 36.3001C29.1 36.3001 29.3 36.3001 29.6 36.3001C29.6 36.8001 29.6 37.4001 29.6 38.0001C24.6 38.0001 19.7 38.0001 14.7 38.0001C14.7 38.6001 14.7 39.1001 14.7 39.7001C19.7 39.8001 24.7 39.8001 29.7 39.8001ZM9 37.8001C8.9 38.9001 9.4 39.8001 10.4 39.8001C11.3 39.9001 12.2 39.8001 13.1 39.8001C13.1 39.2001 13.1 38.7001 13.1 38.2001C11.7 38.1001 10.3 38.5001 9 37.8001Z" fill="#09A24D"/>
<path d="M48.0002 48.0999C47.4002 48.0999 46.9002 48.0999 46.3002 48.0999C46.3002 46.6999 46.3002 45.2999 46.3002 43.8999C46.3002 43.6999 46.4002 43.4999 46.5002 43.2999C47.4002 41.2999 47.9002 39.0999 47.9002 36.8999C47.9002 35.9999 47.9002 35.0999 47.9002 34.1999C47.9002 33.5999 47.6002 33.1999 47.1002 33.1999C46.6002 33.1999 46.3002 33.5999 46.3002 34.1999C46.3002 34.5999 46.3002 35.0999 46.3002 35.4999V35.5999C45.8002 35.5999 45.3002 35.5999 44.7002 35.5999C44.7002 34.7999 44.7002 34.0999 44.7002 33.2999C44.7002 32.6999 44.7002 32.1999 44.7002 31.5999C44.7002 30.9999 44.4002 30.5999 43.9002 30.5999C43.4002 30.5999 43.1002 30.9999 43.1002 31.4999C43.1002 32.3999 43.1002 33.2999 43.1002 34.0999C43.1002 34.2999 43.1002 34.3999 43.1002 34.5999C42.5002 34.5999 42.0002 34.5999 41.4002 34.5999C41.4002 34.1999 41.4002 33.8999 41.4002 33.4999C41.4002 32.4999 41.4002 31.4999 41.4002 30.4999C41.4002 29.8999 41.1002 29.5999 40.6002 29.5999C40.1002 29.5999 39.8002 29.9999 39.8002 30.4999C39.8002 31.5999 39.8002 32.5999 39.8002 33.6999C39.2002 33.6999 38.7002 33.6999 38.1002 33.6999C38.1002 33.4999 38.1002 33.2999 38.1002 33.1999C38.1002 31.2999 38.1002 29.4999 38.1002 27.5999C38.1002 27.4999 38.1002 27.3999 38.1002 27.1999C38.1002 26.5999 37.8002 26.2999 37.3002 26.2999C36.8002 26.2999 36.5002 26.6999 36.5002 27.1999C36.5002 27.6999 36.5002 28.1999 36.5002 28.7999C36.5002 31.8999 36.5002 34.9999 36.5002 38.0999C36.5002 38.2999 36.5002 38.4999 36.5002 38.6999C35.9002 38.6999 35.4002 38.6999 34.8002 38.6999C34.8002 37.7999 34.8002 36.8999 34.8002 35.8999C33.9002 36.3999 33.3002 36.9999 33.2002 37.9999C33.0002 39.0999 33.4002 39.8999 34.2002 40.5999C34.5002 40.8999 34.9002 41.0999 35.3002 41.2999C35.8002 41.5999 36.3002 41.9999 36.8002 42.2999C37.6002 42.8999 38.1002 43.6999 38.2002 44.5999C38.3002 45.5999 38.2002 46.6999 38.2002 47.6999C37.7002 47.6999 37.1002 47.6999 36.6002 47.6999C36.6002 46.8999 36.6002 46.0999 36.6002 45.2999C36.7002 44.3999 36.3002 43.6999 35.5002 43.2999C34.8002 42.8999 34.2002 42.4999 33.6002 41.9999C30.8002 39.9999 31.0002 35.8999 34.1002 34.3999C34.7002 34.0999 35.0002 33.7999 34.9002 32.9999C34.8002 30.9999 34.9002 29.0999 34.9002 27.0999C34.9002 25.5999 36.0002 24.3999 37.4002 24.3999C38.8002 24.3999 39.9002 25.4999 39.9002 27.0999C39.9002 27.2999 39.9002 27.5999 39.9002 27.7999C41.4002 27.5999 41.8002 27.7999 42.8002 28.7999C44.4002 28.0999 46.3002 28.7999 46.5002 31.0999C46.6002 31.0999 46.7002 31.0999 46.8002 30.9999C48.2002 30.6999 49.7002 31.7999 49.7002 33.1999C49.8002 35.9999 49.9002 38.7999 48.9002 41.5999C48.9002 41.6999 48.9002 41.6999 48.8002 41.7999C48.0002 43.2999 48.0002 44.8999 48.0002 46.4999C48.0002 47.3999 48.0002 47.7999 48.0002 48.0999Z" fill="#09A24D"/>
<path d="M32.0998 9.30009C32.0998 8.10009 32.0998 8.1001 33.1998 7.6001C34.8998 6.9001 34.6998 6.80011 35.9998 8.20011C36.3998 8.70011 36.7998 8.70011 37.2998 8.20011C38.4998 6.80011 38.2998 6.8001 40.0998 7.6001C40.1998 7.7001 40.3998 7.70009 40.4998 7.80009C41.0998 8.00009 41.2998 8.4001 41.1998 9.0001C41.1998 9.3001 41.0998 9.60009 41.0998 9.90009C41.0998 10.5001 41.3998 10.8001 41.9998 10.8001C43.9998 10.7001 43.6998 10.6001 44.3998 12.3001C44.4998 12.5001 44.5998 12.7001 44.5998 12.9001C44.7998 13.3001 44.6998 13.6001 44.3998 13.9001C44.0998 14.2001 43.7998 14.4001 43.5998 14.7001C43.1998 15.1001 43.1998 15.5001 43.5998 15.9001C43.6998 15.9001 43.6998 16.0001 43.7998 16.0001C45.0998 17.1001 44.8998 17.1001 44.3998 18.5001C44.2998 18.7001 44.1998 18.9001 44.1998 19.1001C43.8998 19.7001 43.6998 19.9001 42.9998 19.8001C42.6998 19.8001 42.3998 19.8001 42.0998 19.7001C41.4998 19.7001 41.1998 20.0001 41.1998 20.6001C41.3998 22.5001 41.2998 22.3001 39.6998 23.0001C38.5998 23.5001 38.5998 23.5001 37.7998 22.6001C37.6998 22.5001 37.5998 22.4001 37.5998 22.3001C36.9998 21.7001 36.6998 21.7001 36.0998 22.3001C35.8998 22.5001 35.6998 22.7001 35.4998 22.9001C35.1998 23.3001 34.7998 23.4001 34.2998 23.2001C33.7998 23.0001 33.2998 22.8001 32.7998 22.6001C32.3998 22.4001 32.1998 22.2001 32.1998 21.7001C32.1998 21.3001 32.1998 21.0001 32.1998 20.6001C32.1998 20.0001 31.8998 19.6001 31.2998 19.7001C29.3998 19.9001 29.5998 19.8001 28.9998 18.2001C28.4998 17.0001 28.4998 17.0001 29.4998 16.1001C29.5998 16.0001 29.7998 15.9001 29.8998 15.8001C30.2998 15.5001 30.2998 15.0001 29.8998 14.6001C28.3998 13.3001 28.4998 13.5001 29.2998 11.7001C29.3998 11.5001 29.3998 11.3001 29.4998 11.2001C29.6998 11.0001 29.9998 10.8001 30.1998 10.7001C30.5998 10.6001 30.9998 10.7001 31.2998 10.7001C31.9998 10.7001 32.2998 10.5001 32.1998 9.80009C32.0998 9.60009 32.0998 9.50009 32.0998 9.30009ZM39.3998 9.90009C39.3998 9.80009 39.4998 9.6001 39.3998 9.5001C39.2998 9.3001 39.1998 9.1001 39.0998 9.0001C38.9998 9.0001 38.6998 9.10011 38.5998 9.20011C38.1998 9.50011 37.8998 10.0001 37.4998 10.1001C36.4998 10.3001 35.3998 10.4001 34.7998 9.20011C34.7998 9.10011 34.6998 9.1001 34.6998 9.0001C34.5998 9.0001 34.3998 8.90009 34.2998 8.90009C34.1998 9.00009 33.9998 9.10009 33.9998 9.30009C33.9998 9.60009 33.9998 9.90011 33.9998 10.2001C33.9998 10.4001 33.9998 10.7001 33.8998 10.8001C33.1998 11.6001 32.5998 12.5001 31.3998 12.2001C31.2998 12.2001 31.2998 12.2001 31.1998 12.2001C30.7998 12.1001 30.6998 12.4001 30.6998 12.7001C30.6998 12.8001 30.8998 13.0001 30.9998 13.1001C31.2998 13.5001 31.7998 13.8001 31.8998 14.2001C32.0998 15.2001 32.1998 16.3001 31.0998 17.0001C30.8998 17.1001 30.6998 17.3001 30.7998 17.6001C30.8998 18.0001 31.1998 17.8001 31.3998 17.9001C31.7998 17.9001 32.3998 17.8001 32.6998 18.0001C33.4998 18.6001 34.3998 19.3001 34.0998 20.6001C33.9998 20.8001 33.9998 21.1001 34.3998 21.2001C34.7998 21.3001 34.8998 21.1001 34.9998 20.9001C35.2998 20.6001 35.5998 20.1001 35.9998 20.1001C36.9998 19.9001 38.0998 19.8001 38.7998 20.9001C38.8998 21.1001 39.0998 21.4001 39.4998 21.2001C39.8998 21.0001 39.7998 20.8001 39.7998 20.5001C39.7998 20.1001 39.6998 19.5001 39.8998 19.2001C40.4998 18.4001 41.1998 17.5001 42.4998 17.8001C42.6998 17.9001 42.8998 17.9001 43.0998 17.6001C43.2998 17.3001 42.9998 17.1001 42.8998 17.0001C42.6998 16.8001 42.4998 16.7001 42.2998 16.4001C42.1998 16.2001 41.9998 16.0001 41.9998 15.8001C41.8998 14.7001 41.8998 13.7001 42.9998 13.1001L43.0998 13.0001C43.0998 12.9001 43.1998 12.7001 43.0998 12.6001C42.9998 12.5001 42.8998 12.3001 42.7998 12.3001C42.5998 12.3001 42.3998 12.3001 42.1998 12.3001C40.4998 12.5001 39.2998 11.4001 39.3998 9.90009Z" fill="#09A24D"/>
<path d="M28.0001 29.0999C28.6001 29.0999 29.1001 29.0999 29.7001 29.0999C29.7001 29.8999 29.7001 30.6999 29.7001 31.5999C30.3001 31.5999 30.8001 31.5999 31.3001 31.5999C31.3001 32.1999 31.3001 32.6999 31.3001 33.1999C25.2001 33.1999 19.2001 33.1999 13.1001 33.1999C13.1001 32.6999 13.1001 32.0999 13.1001 31.5999C13.6001 31.5999 14.1001 31.5999 14.7001 31.5999C14.7001 30.7999 14.7001 29.9999 14.7001 29.0999C15.3001 29.0999 15.8001 29.0999 16.4001 29.0999C16.4001 29.8999 16.4001 30.6999 16.4001 31.4999C17.0001 31.4999 17.5001 31.4999 18.1001 31.4999C18.1001 30.1999 18.1001 28.7999 18.1001 27.3999C18.7001 27.3999 19.2001 27.3999 19.8001 27.3999C19.8001 28.6999 19.8001 30.0999 19.8001 31.4999C20.4001 31.4999 20.9001 31.4999 21.4001 31.4999C21.4001 29.2999 21.4001 27.0999 21.4001 24.8999C22.0001 24.8999 22.5001 24.8999 23.1001 24.8999C23.1001 27.0999 23.1001 29.2999 23.1001 31.4999C23.7001 31.4999 24.2001 31.4999 24.8001 31.4999C24.8001 30.1999 24.8001 28.7999 24.8001 27.3999C25.4001 27.3999 25.9001 27.3999 26.4001 27.3999C26.4001 28.6999 26.4001 30.0999 26.4001 31.4999C27.0001 31.4999 27.5001 31.4999 28.1001 31.4999C28.0001 30.6999 28.0001 29.8999 28.0001 29.0999Z" fill="#09A24D"/>
<path d="M14.7998 1.60001C14.7998 1.10001 14.7998 0.5 14.7998 0C21.9998 0 29.1998 0 36.3998 0C36.3998 0.5 36.3998 1.00001 36.3998 1.60001C29.1998 1.60001 21.9998 1.60001 14.7998 1.60001Z" fill="#09A24D"/>
<path d="M25.4998 11.7002C25.4998 12.2002 25.4998 12.8002 25.4998 13.3002C21.0998 13.3002 16.6998 13.3002 12.2998 13.3002C12.2998 12.8002 12.2998 12.3002 12.2998 11.7002C16.6998 11.7002 21.0998 11.7002 25.4998 11.7002Z" fill="#09A24D"/>
<path d="M15.6001 15C18.9001 15 22.2001 15 25.5001 15C25.5001 15.5 25.5001 16.1 25.5001 16.6C22.2001 16.6 18.9001 16.6 15.6001 16.6C15.6001 16 15.6001 15.5 15.6001 15Z" fill="#09A24D"/>
<path d="M17.2998 9.89981C17.2998 9.39981 17.2998 8.7998 17.2998 8.2998C19.9998 8.2998 22.7998 8.2998 25.4998 8.2998C25.4998 8.7998 25.4998 9.29981 25.4998 9.89981C22.7998 9.89981 19.9998 9.89981 17.2998 9.89981Z" fill="#09A24D"/>
<path d="M23.9002 18.2998C23.9002 18.7998 23.9002 19.3998 23.9002 19.8998C21.2002 19.8998 18.4002 19.8998 15.7002 19.8998C15.7002 19.3998 15.7002 18.8998 15.7002 18.2998C18.3002 18.2998 21.1002 18.2998 23.9002 18.2998Z" fill="#09A24D"/>
<path d="M15.6 8.2998C15.6 8.7998 15.6 9.39981 15.6 9.89981C15.1 9.89981 14.6 9.89981 14 9.89981C14 9.39981 14 8.8998 14 8.2998C14.5 8.2998 15 8.2998 15.6 8.2998Z" fill="#09A24D"/>
<path d="M39.7001 0C39.7001 0.2 39.7001 0.299994 39.7001 0.399994C39.7001 0.799994 39.7001 1.20001 39.7001 1.60001C39.1001 1.60001 38.6001 1.60001 38.1001 1.60001C38.1001 1.10001 38.1001 0.5 38.1001 0C38.6001 0 39.1001 0 39.7001 0Z" fill="#09A24D"/>
<path d="M36.6 12.1001C38.3 12.1001 39.7 13.5001 39.6 15.2001C39.6 16.9001 38.2 18.3001 36.5 18.3001C34.8 18.3001 33.5 16.9001 33.5 15.2001C33.5 13.4001 34.9 12.1001 36.6 12.1001ZM36.6 16.6001C37.4 16.6001 38 15.9001 38 15.2001C38 14.4001 37.3 13.8001 36.5 13.8001C35.7 13.8001 35.1 14.4001 35.1 15.2001C35.2 16.0001 35.8 16.6001 36.6 16.6001Z" fill="#09A24D"/>
</svg>
