<svg width="47" height="41" viewBox="0 0 47 41" fill="none" xmlns="http://www.w3.org/2000/svg">
<g clip-path="url(#clip0)">
<path d="M18.1 32.9998C15.6 31.6998 13.5 29.8998 11.8 27.5998C11.5 27.8998 11.2 28.0998 10.9 28.2998C10.4 28.6998 10 28.6998 9.50001 28.2998C7.30001 26.5998 5.10001 24.8998 2.90001 23.0998C1.30001 21.7998 0.300009 20.0998 9.16049e-06 17.9998C-0.399991 15.1998 1.40001 11.2998 5.20001 10.7998C6.90001 10.5998 8.30001 11.0998 9.70001 12.0998C9.90001 12.1998 10.1 12.3998 10.2 12.4998C11.6 11.1998 13.3 10.5998 15.1 10.7998C17.6 11.0998 19.2 12.5998 20 14.8998C20.2 15.3998 20.4 15.5998 21 15.5998C22.5 15.5998 23.9 15.5998 25.4 15.5998C25.7 15.5998 26.1 15.3998 26.3 15.1998C28.4 12.8998 30.5 10.4998 32.6 8.19979C32.8 7.89979 33 7.59979 33.1 7.19979C33.4 6.29979 33.5 5.39979 33.8 4.49979C34.5 1.89979 36.9 0.0997916 39.6 -0.00020837C42.4 -0.100208 44.8 1.59979 45.7 4.19979C46.5 6.69979 45.6 9.59979 43.5 11.1998C43.1 11.4998 42.6 11.7998 42.1 12.0998C40.5 13.1998 40.2 13.5998 39.4 15.4998C39.6 15.4998 39.8 15.4998 40.1 15.4998C41.7 15.4998 43.2 15.4998 44.8 15.4998C45.8 15.4998 46.2 15.8998 46.1 16.8998C45.8 23.7998 42.7 28.9998 36.9 32.4998C36.7 32.5998 36.5 32.6998 36.2 32.8998C36.8 34.1998 37.4 35.3998 37.9 36.5998C38.2 37.1998 38.5 37.7998 38.8 38.4998C39.2 39.3998 38.8 39.9998 37.8 40.0998C37.6 40.0998 37.5 40.0998 37.3 40.0998C30.5 40.0998 23.8 40.0998 17 40.0998C16.9 40.0998 16.8 40.0998 16.7 40.0998C15.5 40.0998 15.1 39.4998 15.6 38.3998C16.3 36.7998 17.1 35.1998 17.8 33.5998C17.9 33.4998 18 33.2998 18.1 32.9998ZM13.4 26.3998C15 28.4998 16.9 30.0998 19.1 31.2998C19.4 31.4998 19.8 31.5998 20.2 31.5998C24.8 31.5998 29.3 31.5998 33.9 31.5998C34.3 31.5998 34.7 31.4998 35 31.2998C38.9 29.2998 41.6 26.1998 43.1 21.9998C43.6 20.6998 43.8 19.1998 44.1 17.6998C36.1 17.6998 28.2 17.6998 20.4 17.6998C20.1 20.2998 18.7 22.1998 16.7 23.6998C15.7 24.5998 14.6 25.4998 13.4 26.3998ZM18.4 17.1998C18.4 16.9998 18.4 16.8998 18.4 16.6998C18.3 14.7998 16.5 12.3998 13.8 12.9998C12.7 13.1998 11.9 13.7998 11.2 14.5998C10.6 15.3998 10 15.3998 9.30001 14.5998C9.20001 14.4998 9.10001 14.2998 8.90001 14.1998C7.70001 13.0998 6.20001 12.4998 4.60001 13.0998C3.10001 13.6998 2.00001 15.2998 2.00001 16.9998C2.00001 18.8998 2.90001 20.3998 4.30001 21.4998C6.10001 22.9998 8.00001 24.4998 9.90001 25.8998C10 25.9998 10.4 25.9998 10.5 25.8998C12.5 24.2998 14.5 22.7998 16.5 21.1998C17.7 20.1998 18.4 18.8998 18.4 17.1998ZM36.3 38.0998C35.7 36.6998 35 35.3998 34.4 33.9998C34.2 33.5998 34 33.3998 33.5 33.4998C29.8 33.4998 26 33.4998 22.3 33.4998C21.6 33.4998 20.7 33.2998 20.2 33.5998C19.7 33.8998 19.5 34.7998 19.2 35.4998C18.8 36.3998 18.4 37.1998 18 38.0998C24.1 38.0998 30.1 38.0998 36.3 38.0998ZM43.9 6.49979C43.9 4.09979 42.4 2.29979 40.3 1.99979C38.3 1.69979 36.3 2.99979 35.7 4.99979C35.5 5.79979 35.3 6.59979 35.1 7.39979C35.1 7.59979 35.2 7.89979 35.3 7.99979C36.7 8.99979 38 9.89979 39.4 10.8998C39.5 10.9998 39.8 10.9998 40 10.8998C40.8 10.3998 41.5 9.89979 42.2 9.39979C43.3 8.59979 43.8 7.49979 43.9 6.49979ZM28.7 15.5998C31.5 15.5998 34.1 15.5998 36.7 15.5998C36.8 15.5998 37 15.4998 37.1 15.3998C37.6 14.4998 38 13.5998 38.5 12.6998C37 11.6998 35.6 10.6998 34.1 9.59979C32.3 11.5998 30.5 13.4998 28.7 15.5998Z" fill="#09A24D"/>
</g>
<defs>
<clipPath id="clip0">
<rect width="46.1" height="40.1" fill="white"/>
</clipPath>
</defs>
</svg>
