<svg width="45" height="62" viewBox="0 0 45 62" fill="none" xmlns="http://www.w3.org/2000/svg">
<path d="M23 0C24.4 0.3 25.4 1.1 26.5 2C27.1 2.6 27.8 3 28.4 3.6C29.2 4.4 30.2 4.7 31.3 4.8C32.6 4.9 33.9 5 35.2 5.2C37.5 5.5 39.2 7.4 39.5 9.8C39.6 11.2 39.7 12.5 39.9 13.9C40 14.6 40.3 15.3 40.7 15.8C41.5 16.9 42.5 18 43.4 19.1C45 21.1 45 23.5 43.4 25.5C42.8 26.3 42.2 27.1 41.4 27.8C40.2 29 39.7 30.4 39.7 32.1C39.7 33.1 39.6 34.2 39.4 35.2C39 37.7 37.2 39.3 34.8 39.5C34 39.6 33.2 39.7 32.3 39.7C33.1 41.6 33.9 43.5 34.7 45.4C36 48.6 37.4 51.8 38.7 55C38.9 55.6 39 56.1 38.6 56.6C38.2 57.1 37.7 57 37.1 56.9C35.5 56.4 33.8 56 32.2 55.5C31.8 55.4 31.6 55.4 31.4 55.8C30.6 57.3 29.8 58.8 28.9 60.3C28.6 60.8 28.3 61.2 27.6 61.1C27 61.1 26.7 60.7 26.5 60.2C25.4 57.6 24.3 55 23.3 52.4C23 51.7 23.2 51.1 23.8 51C24.4 50.9 24.7 51.2 24.9 51.7C25.7 53.7 26.6 55.7 27.4 57.8C27.5 58 27.6 58.2 27.7 58.5C27.8 58.3 27.9 58.2 28 58C28.6 56.9 29.2 55.8 29.8 54.8C30.4 53.7 31.1 53.4 32.3 53.7C33.5 54 34.6 54.4 35.8 54.7C36 54.8 36.2 54.8 36.5 54.9C35.8 53.1 35.1 51.5 34.4 49.8C33.1 46.7 31.8 43.6 30.5 40.5C30.3 40 30.1 39.9 29.7 40.1C29.4 40.3 29 40.5 28.7 40.7C27.4 41.7 26.1 42.8 24.8 43.9C24.6 44 24.5 44.2 24.5 44.4C22.3 49.6 20.1 54.8 18 60C17.9 60.1 17.9 60.3 17.8 60.4C17.6 60.9 17.2 61.2 16.7 61.2C16.2 61.2 15.8 61 15.6 60.5C14.8 59 13.9 57.4 13.1 55.9C12.9 55.5 12.7 55.4 12.2 55.5C10.6 56 8.9 56.4 7.3 56.9C6.8 57.1 6.3 57.1 5.9 56.6C5.5 56.1 5.5 55.6 5.8 55.1C7.9 50.2 9.9 45.3 12 40.4C12.1 40.2 12.2 40 12.3 39.7C11.3 39.6 10.3 39.5 9.3 39.4C7 39 5.4 37.3 5.2 35C5.1 33.6 4.9 32.1 4.8 30.7C4.7 29.9 4.4 29.3 3.9 28.7C3 27.6 2.1 26.6 1.2 25.5C-0.4 23.5 -0.4 21.1 1.2 19.1C2 18.1 2.8 17.1 3.6 16.2C4.4 15.4 4.7 14.4 4.8 13.3C4.9 12 5 10.8 5.2 9.5C5.4 7.2 7.3 5.3 9.6 5.1C11 5 12.5 4.8 13.9 4.7C14.7 4.6 15.4 4.3 16 3.8C16.7 3.2 17.4 2.7 18.1 2.1C19.2 1.2 20.2 0.3 21.6 0C22 0 22.5 0 23 0ZM22.1 42.8C23 42.8 23.6 42.6 24.2 42.1C25.3 41.2 26.4 40.3 27.4 39.4C28.3 38.6 29.4 38.2 30.7 38.1C32.1 38 33.6 37.9 35 37.7C36.4 37.5 37.4 36.5 37.6 35.1C37.8 34 37.9 33 37.9 31.9C38 30 38.5 28.3 39.9 26.9C40.6 26.2 41.2 25.3 41.9 24.5C43.1 23.1 43.1 21.6 41.9 20.2C41 19.1 40.1 18 39.2 16.9C38.5 16.1 38.2 15.1 38.1 14C38 12.5 37.9 11 37.6 9.5C37.4 8 36.3 7.1 34.8 6.9C33.5 6.8 32.2 6.6 30.9 6.5C29.5 6.4 28.4 5.9 27.3 5C26.3 4.1 25.3 3.3 24.3 2.5C23 1.4 21.5 1.4 20.2 2.5C19.1 3.4 18 4.3 16.9 5.2C16.1 6 15.2 6.4 14.1 6.5C12.6 6.6 11.1 6.8 9.6 6.9C8.1 7 6.9 8.2 6.8 9.7C6.7 11 6.5 12.3 6.4 13.6C6.3 15 5.8 16.1 4.9 17.2C4.1 18.2 3.3 19.2 2.5 20.1C1.4 21.5 1.4 23 2.5 24.4C3.4 25.5 4.3 26.6 5.2 27.6C5.9 28.4 6.3 29.3 6.3 30.3C6.4 31.8 6.6 33.3 6.7 34.8C6.8 36.3 7.8 37.4 9.3 37.6C10.4 37.8 11.5 37.9 12.6 37.9C14.6 38 16.2 38.5 17.7 39.9C18.5 40.6 19.3 41.3 20.1 41.9C20.8 42.6 21.4 42.9 22.1 42.8ZM22.4 44.7C19.9 44.2 19.9 44.2 17.9 42.5C17.2 41.9 16.5 41.3 15.7 40.7C15.4 40.5 15 40.3 14.7 40.1C14.3 39.9 14.1 40 13.9 40.4C12 45 10 49.6 8.1 54.3C8 54.4 8 54.6 7.9 54.8C9.3 54.4 10.7 54 12.1 53.6C13.2 53.3 14 53.6 14.5 54.6C14.7 55 15 55.4 15.2 55.9C15.7 56.7 16.1 57.5 16.6 58.5C18.6 53.9 20.5 49.3 22.4 44.7Z" fill="#09A24D"/>
<path d="M36.4004 22.3001C36.4004 30.7001 29.1004 37.3001 20.8004 36.4001C14.1004 35.7001 8.80045 30.4001 8.10045 23.7001C7.60045 17.9001 10.7004 12.3001 15.9004 9.70005C16.8004 9.30005 17.3004 9.30005 17.6004 9.90005C17.9004 10.5001 17.6004 10.9001 16.8004 11.3001C12.0004 13.7001 9.20045 18.9001 10.0004 24.1001C10.8004 29.5001 14.9004 33.7001 20.2004 34.6001C26.9004 35.8001 33.3004 31.2001 34.5005 24.5001C35.7005 17.8001 31.1004 11.3001 24.4004 10.3001C23.3004 10.1001 22.1004 10.2001 20.9004 10.2001C20.6004 10.2001 20.2004 10.1001 20.0004 9.90005C19.8004 9.70005 19.8004 9.30005 19.9004 9.00005C20.0004 8.70005 20.4004 8.50005 20.7004 8.40005C24.5004 8.00005 27.9004 8.90005 31.0005 11.2001C34.4004 13.7001 36.4004 17.9001 36.4004 22.3001Z" fill="#09A24D"/>
<path d="M19.1004 23.3C21.4004 21 23.5004 18.9 25.7004 16.7C26.4004 16 27.3004 15.6 28.4004 15.8C30.5004 16.3 31.3004 18.8 29.8004 20.4C29.1004 21.2 28.3004 21.9 27.6004 22.6C25.5004 24.7 23.5004 26.7 21.4004 28.8C20.0004 30.2 18.4004 30.2 17.0004 28.8C15.7004 27.5 14.5004 26.3 13.2004 25C12.4004 24.2 12.2004 23.2 12.6004 22.1C13.0004 21 13.8004 20.4 14.8004 20.3C15.7004 20.2 16.5004 20.5 17.2004 21.2C17.9004 22 18.5004 22.6 19.1004 23.3ZM15.1004 22.1C14.8004 22.4 14.5004 22.5 14.3004 22.8C14.1004 23.2 14.2004 23.6 14.5004 23.9C15.7004 25.1 16.9004 26.3 18.1004 27.5C18.9004 28.3 19.3004 28.3 20.0004 27.5C22.7004 24.8 25.4004 22.1 28.1004 19.4C28.2004 19.3 28.4004 19.1 28.5004 19C28.8004 18.6 28.7004 18.2 28.4004 17.8C28.1004 17.4 27.6004 17.4 27.2004 17.7C27.0004 17.8 26.9004 18 26.8004 18.1C24.6004 20.3 22.3004 22.5 20.1004 24.8C19.2004 25.7 18.9004 25.7 18.1004 24.8C17.4004 24.1 16.7004 23.4 15.9004 22.7C15.8004 22.5 15.5004 22.4 15.1004 22.1Z" fill="#09A24D"/>
</svg>
