<svg width="50" height="48" viewBox="0 0 50 48" fill="none" xmlns="http://www.w3.org/2000/svg">
<path d="M31.13 22.2128C31.43 22.2128 31.73 22.2128 31.93 22.2128C36.93 22.2128 42.03 22.2128 47.03 22.2128C48.43 22.2128 49.33 22.9128 49.63 24.1128C49.93 25.2128 49.43 26.3128 48.43 26.9128C48.23 27.0128 48.03 27.2128 48.03 27.4128C47.43 34.4128 43.93 39.5128 37.73 42.8128C37.63 42.8128 37.63 42.9128 37.53 43.0128C38.03 43.2128 38.13 43.6128 38.13 44.1128C38.13 44.8128 38.13 45.5128 38.13 46.2128C38.13 46.8128 37.83 47.1128 37.23 47.1128C37.13 47.1128 36.93 47.1128 36.83 47.1128C28.93 47.1128 21.03 47.1128 13.03 47.1128C11.83 47.1128 11.63 47.0128 11.63 45.7128C11.63 45.1128 11.63 44.6128 11.63 44.0128C11.63 43.5128 11.73 43.2128 12.23 42.9128C12.03 42.8128 11.93 42.7128 11.83 42.6128C6.23004 39.7128 2.93003 35.1128 1.83003 28.8128C1.83003 28.6128 1.73003 28.3128 1.73003 28.1128C1.73003 27.4128 1.63003 26.9128 0.930035 26.5128C0.0300347 26.0128 -0.169965 24.8128 0.130035 23.9128C0.430035 23.0128 1.33003 22.3128 2.33003 22.2128C2.63003 22.2128 2.83003 22.2128 3.13003 22.2128C10.03 22.2128 17.03 22.2128 23.93 22.2128C24.53 22.2128 24.73 22.0128 25.03 21.5128C26.73 18.3128 28.43 15.1128 30.03 11.8128C30.13 11.6128 30.13 11.2128 30.13 11.0128C30.13 10.5128 30.13 10.0128 30.33 9.51283C31.63 6.71283 32.93 4.01283 34.33 1.21283C34.83 0.112832 35.93 -0.287168 37.03 0.212832C37.83 0.612832 38.63 1.01284 39.43 1.41284C40.43 1.91284 40.83 3.01283 40.33 4.01283C39.03 6.81283 37.63 9.61284 36.23 12.4128C36.03 12.8128 35.63 13.0128 35.23 13.4128C35.03 13.6128 34.73 13.8128 34.53 14.1128C33.43 16.6128 32.33 19.1128 31.23 21.6128C31.23 21.8128 31.23 21.9128 31.13 22.2128ZM5.03003 33.3128C5.13003 33.5128 5.23003 33.7128 5.33003 33.9128C8.53004 39.6128 13.33 42.7128 19.83 42.9128C23.23 43.0128 26.53 42.9128 29.93 42.9128C34.33 42.9128 38.03 41.3128 41.23 38.4128C41.43 38.2128 41.63 38.0128 41.73 37.9128C39.53 37.6128 37.23 37.4128 35.13 36.9128C31.63 36.0128 28.23 35.0128 24.83 33.9128C21.33 32.8128 17.83 31.8128 14.13 31.6128C11.03 31.4128 8.03004 32.0128 5.03003 33.3128ZM46.53 27.2128C46.13 27.2128 45.93 27.2128 45.73 27.2128C42.83 27.2128 39.83 27.2128 36.93 27.2128C36.73 27.2128 36.43 27.2128 36.23 27.1128C35.93 26.9128 35.63 26.6128 35.63 26.3128C35.63 26.0128 36.03 25.8128 36.23 25.5128C36.33 25.4128 36.63 25.5128 36.73 25.5128C40.03 25.5128 43.43 25.5128 46.73 25.5128C46.93 25.5128 47.13 25.5128 47.23 25.5128C47.73 25.4128 47.93 25.2128 47.93 24.7128C47.93 24.3128 47.73 24.0128 47.23 23.9128C47.03 23.9128 46.83 23.9128 46.63 23.9128C32.03 23.9128 17.43 23.9128 2.93003 23.9128C2.73003 23.9128 2.53003 23.9128 2.33003 23.9128C1.93003 24.0128 1.63004 24.3128 1.63004 24.8128C1.63004 25.2128 1.93003 25.5128 2.33003 25.6128C2.53003 25.6128 2.73003 25.6128 2.83003 25.6128C6.83003 25.6128 10.93 25.6128 14.93 25.6128C20.43 25.6128 25.83 25.6128 31.33 25.6128C32.03 25.6128 32.33 25.9128 32.33 26.4128C32.33 26.9128 31.93 27.2128 31.33 27.2128C30.73 27.2128 30.13 27.3128 29.53 27.2128C28.73 27.1128 28.43 27.4128 28.13 28.1128C27.53 29.6128 26.83 31.0128 26.23 32.6128C26.43 32.7128 26.53 32.7128 26.63 32.8128C28.63 33.4128 30.53 34.1128 32.53 34.6128C35.83 35.5128 39.13 36.2128 42.63 36.0128C42.93 36.0128 43.23 35.8128 43.43 35.6128C44.53 34.0128 45.33 32.3128 45.73 30.5128C46.23 29.4128 46.33 28.3128 46.53 27.2128ZM4.33003 31.8128C7.03004 30.7128 9.63004 30.0128 12.33 29.9128C15.03 29.7128 17.63 30.1128 20.33 30.7128C20.93 29.5128 21.53 28.4128 22.13 27.2128C15.93 27.2128 9.73003 27.2128 3.43003 27.2128C3.73003 28.8128 4.03003 30.2128 4.33003 31.8128ZM34.23 5.41284C34.73 5.81284 35.73 5.91284 35.33 6.91284C34.83 7.91284 34.13 7.21283 33.53 7.01283C33.43 7.21283 33.33 7.51283 33.23 7.71283C33.83 8.11283 34.73 8.21283 34.33 9.21283C33.83 10.1128 33.13 9.51283 32.53 9.31283C32.33 9.61283 32.23 10.0128 32.03 10.3128C31.83 10.7128 31.83 10.9128 32.23 11.0128C32.93 11.3128 33.53 11.6128 34.23 11.9128C34.63 12.1128 34.83 12.1128 35.03 11.6128C36.33 8.91283 37.53 6.31283 38.83 3.71283C39.03 3.41283 38.93 3.11283 38.63 3.01283C38.23 2.81283 37.83 2.61284 37.43 2.41284C36.03 1.71284 36.03 1.71283 35.43 3.21283C35.43 3.21283 35.43 3.21283 35.43 3.31283C35.93 3.71283 36.93 3.81283 36.53 4.71283C36.13 5.71283 35.33 5.01283 34.73 4.81283C34.43 4.91283 34.33 5.21284 34.23 5.41284ZM31.73 12.5128C30.03 15.7128 28.33 18.9128 26.63 22.2128C26.93 22.2128 27.13 22.2128 27.33 22.2128C27.93 22.2128 28.73 22.4128 29.23 22.1128C29.63 21.8128 29.83 21.0128 30.03 20.5128C31.13 18.1128 32.13 15.7128 33.23 13.3128C32.73 13.0128 32.23 12.7128 31.73 12.5128ZM36.53 44.6128C28.83 44.6128 21.13 44.6128 13.43 44.6128C13.43 44.9128 13.43 45.1128 13.43 45.4128C21.13 45.4128 28.83 45.4128 36.53 45.4128C36.53 45.1128 36.53 44.8128 36.53 44.6128ZM27.03 27.2128C26.03 27.2128 25.13 27.2128 24.23 27.2128C24.13 27.2128 23.93 27.3128 23.93 27.4128C23.23 28.7128 22.63 29.9128 21.93 31.2128C22.93 31.5128 23.93 31.8128 24.93 32.1128C25.63 30.4128 26.33 28.8128 27.03 27.2128Z" fill="#09A24D"/>
<path d="M17.5299 17.2128C17.4299 19.0128 16.4299 20.5128 14.8299 21.1128C13.1299 21.7128 11.6299 21.3128 10.4299 20.1128C10.1299 19.8128 9.92987 19.7128 9.52987 19.7128C7.82987 19.7128 6.62987 18.2128 6.82987 16.5128C6.92987 15.0128 8.42987 13.7128 10.0299 14.0128C10.5299 14.1128 10.9299 14.0128 11.4299 13.7128C12.8299 12.9128 14.2299 12.9128 15.5299 13.7128C16.8299 14.5128 17.5299 15.7128 17.5299 17.2128ZM13.4299 19.7128C14.8299 19.7128 15.9299 18.6128 15.9299 17.2128C15.9299 15.9128 14.8299 14.7128 13.4299 14.7128C12.1299 14.7128 10.9299 15.8128 10.9299 17.2128C10.9299 18.6128 12.0299 19.7128 13.4299 19.7128ZM9.22987 17.9128C9.32987 17.1128 9.42987 16.3128 9.52987 15.6128C8.92987 15.7128 8.52987 16.1128 8.52987 16.7128C8.42987 17.3128 8.72987 17.7128 9.22987 17.9128Z" fill="#09A24D"/>
<path d="M18.3301 10.6128C18.3301 12.0128 17.2301 13.1128 15.8301 13.1128C14.5301 13.1128 13.3301 12.0128 13.3301 10.6128C13.3301 9.21279 14.4301 8.11279 15.8301 8.11279C17.2301 8.11279 18.3301 9.21279 18.3301 10.6128ZM16.7301 10.6128C16.7301 10.2128 16.3301 9.81279 15.9301 9.81279C15.4301 9.81279 15.0301 10.2128 15.1301 10.6128C15.1301 11.0128 15.5301 11.4128 16.0301 11.4128C16.3301 11.4128 16.7301 11.0128 16.7301 10.6128Z" fill="#09A24D"/>
<path d="M13.8303 2.31259C13.8303 2.81259 13.4303 3.21259 12.9303 3.21259C12.4303 3.21259 12.0303 2.81259 12.0303 2.31259C12.0303 1.81259 12.4303 1.5126 12.8303 1.4126C13.3303 1.4126 13.7303 1.81259 13.8303 2.31259Z" fill="#09A24D"/>
<path d="M9.63008 6.4127C9.63008 6.9127 9.23008 7.31269 8.73008 7.31269C8.23008 7.31269 7.83008 6.9127 7.83008 6.4127C7.83008 5.9127 8.13008 5.6127 8.63008 5.5127C9.23008 5.6127 9.63008 5.9127 9.63008 6.4127Z" fill="#09A24D"/>
<path d="M15.9302 40.3126C15.9302 40.9126 15.4302 41.4126 14.8302 41.1126C13.8302 40.7126 12.6302 40.2126 11.8302 39.6126C10.5302 38.6126 9.33018 37.3126 8.03018 36.1126C7.53018 35.6126 7.63018 35.1126 7.93018 34.8126C8.33018 34.5126 8.73018 34.6126 9.23018 35.0126C10.1302 35.9126 11.0302 37.0126 12.1302 37.8126C13.0302 38.5126 14.1302 39.0126 15.2302 39.5126C15.5302 39.7126 15.8302 39.9126 15.9302 40.3126Z" fill="#09A24D"/>
</svg>
